<svg height='100px' width='100px'  fill="#000000" xmlns:x="http://ns.adobe.com/Extensibility/1.0/" xmlns:i="http://ns.adobe.com/AdobeIllustrator/10.0/" xmlns:graph="http://ns.adobe.com/Graphs/1.0/" xmlns="http://www.w3.org/2000/svg" xmlns:xlink="http://www.w3.org/1999/xlink" version="1.1" x="0px" y="0px" viewBox="0 0 100 100" style="enable-background:new 0 0 100 100;" xml:space="preserve"><g><g i:extraneous="self"><path d="M77,95.3c-0.7,0-1.4-0.2-2-0.6l-25.1-16l-25.1,16c-1.3,0.8-2.9,0.8-4.1-0.1c-1.2-0.9-1.8-2.4-1.4-3.9l7.5-28.9l-23-18.9    c-1.2-1-1.6-2.5-1.2-4c0.5-1.4,1.8-2.4,3.3-2.5l29.8-1.8L46.6,6.9c1.1-2.8,5.7-2.8,6.8,0l10.9,27.8L94,36.4    c1.5,0.1,2.8,1.1,3.3,2.5c0.5,1.4,0,3-1.2,4l-23,19l7.5,28.8c0.4,1.5-0.2,3-1.4,3.9C78.6,95,77.8,95.3,77,95.3z M49.9,70.6    c0.7,0,1.4,0.2,2,0.6l19.2,12.3l-5.7-22c-0.4-1.4,0.1-2.9,1.2-3.8l17.6-14.5l-22.7-1.4c-1.4-0.1-2.7-1-3.2-2.3L50,18.3l-8.3,21.2    c-0.5,1.3-1.8,2.2-3.2,2.3l-22.8,1.4l17.5,14.4c1.1,0.9,1.6,2.4,1.2,3.8l-5.7,22.1l19.2-12.2C48.5,70.8,49.2,70.6,49.9,70.6z"></path></g></g></svg>