<svg height='100px' width='100px'  fill="#000000" xmlns:x="http://ns.adobe.com/Extensibility/1.0/" xmlns:i="http://ns.adobe.com/AdobeIllustrator/10.0/" xmlns:graph="http://ns.adobe.com/Graphs/1.0/" xmlns="http://www.w3.org/2000/svg" xmlns:xlink="http://www.w3.org/1999/xlink" version="1.1" x="0px" y="0px" viewBox="0 0 100 100" style="enable-background:new 0 0 100 100;" xml:space="preserve"><g><g i:extraneous="self"><g><path d="M84,17.3c-17.8-17.8-46.7-18-64.8-0.5l-6.4-6.4c-0.8-0.8-2-1.1-3.2-0.8C8.7,9.9,7.7,10.9,7.5,12L2.6,35.6     c-0.2,1.1,0.1,2.1,0.8,2.8c0.8,0.8,1.8,1.1,2.9,0.8l23.6-4.9c1.2-0.2,2.1-1,2.4-2.2c0.3-1.1,0-2.4-0.8-3.2L25,22.6     C39.9,8.3,63.6,8.5,78.2,23.1C93,37.9,93,62,78.2,76.9C71,84.1,61.5,88,51.3,88s-19.7-4-26.9-11.1c-5.6-5.6-9.3-12.7-10.6-20.5     c-0.4-2.2-2.5-3.8-4.7-3.4c-2.2,0.4-3.7,2.5-3.4,4.7c1.6,9.5,6.1,18.1,12.9,24.9c8.7,8.7,20.3,13.5,32.7,13.5s24-4.8,32.7-13.5     C102,64.6,102,35.3,84,17.3z"></path><path d="M51.6,21c-2.3,0-4.1,1.8-4.1,4.1V50c0,1.5,0.8,2.9,2.1,3.6l13.2,7.3c0.6,0.4,1.3,0.5,2,0.5c1.4,0,2.8-0.8,3.6-2.1     c1.1-2,0.4-4.5-1.6-5.6l-11.1-6.1V25.1C55.7,22.8,53.9,21,51.6,21z"></path></g></g></g></svg>